<?xml version="1.0" encoding="UTF-8" standalone="no"?>
<!DOCTYPE svg PUBLIC "-//W3C//DTD SVG 1.1//EN" "http://www.w3.org/Graphics/SVG/1.1/DTD/svg11.dtd">
<svg width="100%" height="100%" viewBox="0 0 228 55" version="1.1" xmlns="http://www.w3.org/2000/svg" xmlns:xlink="http://www.w3.org/1999/xlink" xml:space="preserve" xmlns:serif="http://www.serif.com/" style="fill-rule:evenodd;clip-rule:evenodd;stroke-linejoin:round;stroke-miterlimit:1.41421;">
    <g id="Layer_1-2">
        <path d="M149.524,53.491L149.524,44.432L155.276,44.432L155.276,45.793L151.024,45.793L151.024,48.475L154.998,48.475L154.998,49.816L151.024,49.816L151.024,53.491L149.524,53.491ZM159.835,53.491L158.256,53.491L158.256,44.432L159.786,44.432L159.835,53.491ZM170.603,53.491L169.421,53.491L164.792,46.895L164.792,53.491L163.322,53.491L163.322,44.432L164.772,44.432L169.143,50.72L169.143,44.432L170.613,44.432L170.603,53.491ZM178.331,44.432L181.808,53.491L180.248,53.491L179.315,50.988L175.848,50.988L174.914,53.491L173.364,53.491L176.841,44.432L178.331,44.432ZM176.345,49.657L178.828,49.657L177.586,46.309L176.345,49.657ZM191.88,53.491L190.698,53.491L186.069,46.895L186.069,53.491L184.599,53.491L184.599,44.432L186.069,44.432L190.44,50.72L190.44,44.432L191.91,44.432L191.88,53.491ZM198.983,44.283C200.801,44.16 202.407,45.459 202.668,47.263L201.168,47.263C200.895,46.293 199.988,45.642 198.983,45.693C197.393,45.693 196.42,47.084 196.42,48.981C196.42,50.879 197.413,52.269 198.983,52.269C200.004,52.319 200.918,51.642 201.168,50.65L202.668,50.65C202.407,52.455 200.803,53.757 198.983,53.64C196.648,53.64 194.87,51.753 194.87,48.961C194.87,46.17 196.658,44.283 198.983,44.283ZM207.168,53.491L205.638,53.491L205.638,44.432L207.168,44.432L207.168,53.491ZM214.876,44.432L218.353,53.491L216.863,53.491L215.869,50.988L212.403,50.988L211.469,53.491L209.909,53.491L213.386,44.432L214.876,44.432ZM212.889,49.667L215.373,49.667L214.131,46.319L212.889,49.667ZM221.134,44.442L222.664,44.442L222.664,52.13L227.014,52.13L227.014,53.501L221.124,53.501L221.134,44.442Z" style="fill-rule:nonzero;"/>
        <path d="M80.488,30.674C80.488,34.479 77.865,36.525 73.534,36.525L64.982,36.525L64.982,15.893L72.928,15.893C77.23,15.893 79.882,17.81 79.882,21.506C79.967,23.385 78.862,25.115 77.12,25.827C79.175,26.541 80.535,28.499 80.488,30.674ZM72.621,24.347C74.677,24.347 75.75,23.542 75.75,21.893C75.75,20.244 74.677,19.509 72.621,19.509L69.114,19.509L69.114,24.357L72.621,24.347ZM69.124,32.889L73.197,32.889C75.183,32.889 76.286,31.896 76.286,30.297C76.286,28.697 75.213,27.704 73.197,27.704L69.124,27.704L69.124,32.889ZM92.785,25.588C92.146,25.24 91.427,25.065 90.699,25.082C89.353,24.98 88.135,25.88 87.838,27.197L87.838,36.515L83.666,36.515L83.666,21.486L87.838,21.486L87.838,22.966C88.561,21.808 89.841,21.117 91.206,21.148C91.745,21.129 92.282,21.221 92.785,21.416L92.785,25.588ZM97.225,19.539C95.919,19.501 94.886,18.417 94.911,17.11C94.937,15.803 96.01,14.76 97.317,14.772C98.625,14.784 99.678,15.847 99.679,17.155C99.677,17.8 99.414,18.417 98.95,18.866C98.486,19.315 97.861,19.558 97.215,19.539L97.225,19.539ZM99.311,36.525L95.139,36.525L95.139,21.486L99.311,21.486L99.311,36.525ZM112.563,34.638C111.603,35.65 110.262,36.212 108.867,36.187C104.526,36.187 102.043,32.691 102.043,28.658C102.043,24.625 104.536,21.158 108.867,21.158C110.254,21.133 111.59,21.679 112.563,22.668L112.563,21.486L116.695,21.486L116.695,34.876C116.695,40.021 113.566,42.405 109.334,42.405C105.43,42.405 102.778,40.419 102.381,37.061L106.414,37.061C106.698,38.439 107.999,39.363 109.394,39.177C111.51,39.177 112.622,37.935 112.622,35.512L112.563,34.638ZM112.563,26.194C111.947,25.231 110.884,24.647 109.741,24.645C107.526,24.645 106.215,26.323 106.215,28.618C106.215,30.913 107.526,32.651 109.741,32.651C110.885,32.66 111.951,32.077 112.563,31.111L112.563,26.194ZM120.38,14.662L124.483,14.662L124.483,22.847C125.522,21.728 126.988,21.103 128.515,21.128C131.913,21.128 133.83,23.343 133.83,26.681L133.83,36.505L129.658,36.505L129.658,27.565C129.754,26.872 129.535,26.172 129.059,25.658C128.584,25.144 127.903,24.87 127.204,24.913C125.919,24.881 124.786,25.75 124.483,26.999L124.483,36.515L120.311,36.515L120.38,14.662ZM138.191,24.833L135.906,24.833L135.906,21.486L138.191,21.486L138.191,17.413L142.363,17.413L142.363,21.486L145.66,21.486L145.66,24.833L142.363,24.833L142.363,31.429C142.3,31.901 142.46,32.376 142.797,32.713C143.134,33.05 143.609,33.211 144.081,33.148C144.721,33.145 145.349,32.97 145.899,32.641L145.899,36.356C145.046,36.706 144.127,36.865 143.207,36.823C140.147,36.823 138.24,35.313 138.24,31.975L138.191,24.833ZM148.889,14.642L153.061,14.642L153.061,22.847C154.1,21.728 155.566,21.103 157.094,21.128C160.491,21.128 162.408,23.343 162.408,26.681L162.408,36.505L158.256,36.505L158.256,27.565C158.353,26.872 158.133,26.172 157.657,25.658C157.182,25.144 156.501,24.87 155.802,24.913C154.517,24.881 153.384,25.75 153.081,26.999L153.081,36.515L148.909,36.515L148.889,14.642ZM172.49,36.843C168.12,36.843 165.13,33.614 165.13,29.005C165.13,24.396 168.11,21.138 172.49,21.138C176.871,21.138 179.851,24.366 179.851,29.005C179.851,33.644 176.861,36.863 172.49,36.863L172.49,36.843ZM172.49,24.664C170.404,24.664 169.262,26.482 169.262,29.005C169.262,31.528 170.404,33.306 172.49,33.306C174.576,33.306 175.719,31.489 175.719,29.005C175.719,26.522 174.576,24.684 172.49,24.684L172.49,24.664ZM196.003,36.525L191.831,36.525L191.831,35.144C190.787,36.257 189.323,36.88 187.798,36.863C184.43,36.863 182.513,34.647 182.513,31.31L182.513,21.486L186.685,21.486L186.685,30.426C186.685,32.005 187.46,33.078 189.109,33.078C190.39,33.119 191.52,32.243 191.801,30.992L191.801,21.486L196.003,21.486L196.003,36.525ZM202.956,32.055C203.311,33.124 204.357,33.808 205.479,33.704C206.76,33.704 207.595,33.197 207.595,32.224C207.595,31.548 207.128,31.23 206.085,30.942L203.105,30.267C200.82,29.73 199.201,28.548 199.201,26.025C199.201,23.095 201.824,21.148 205.161,21.148C208.966,21.148 211.052,22.966 211.548,25.787L207.575,25.787C207.243,24.796 206.258,24.177 205.221,24.307C204.227,24.307 203.234,24.774 203.234,25.717C203.234,26.323 203.641,26.661 204.575,26.89L207.664,27.595C210.287,28.231 211.638,29.681 211.638,31.965C211.638,35.025 208.985,36.843 205.479,36.843C201.814,36.843 199.221,35.094 198.784,32.035L202.956,32.055ZM227.61,31.618C227.074,34.816 224.72,36.863 220.955,36.863C216.584,36.863 213.654,33.664 213.654,29.025C213.654,24.386 216.634,21.158 220.886,21.158C225.296,21.158 227.71,24.217 227.71,28.628L227.71,29.899L217.667,29.899C217.806,32.154 219.078,33.495 220.925,33.495C222.195,33.643 223.381,32.841 223.717,31.608L227.61,31.618ZM217.786,27.376L223.607,27.376C223.661,26.636 223.399,25.907 222.886,25.369C222.374,24.832 221.658,24.536 220.915,24.555C219.286,24.518 217.908,25.752 217.767,27.376L217.786,27.376Z" style="fill-rule:nonzero;"/>
        <path d="M0.316,26.214L0.316,53.491L2.451,37.925L2.451,24.068L0.316,26.214Z" style="fill:rgb(151,215,0);fill-rule:nonzero;"/>
        <path d="M7.408,19.112L4.875,21.655L2.451,37.925L0.316,53.491L4.637,37.796L7.408,19.112Z" style="fill:rgb(136,211,18);fill-rule:nonzero;"/>
        <path d="M14.6,11.93L11.411,15.109L4.637,37.796L0.316,53.491L6.822,37.945L14.6,11.93Z" style="fill:rgb(121,207,37);fill-rule:nonzero;"/>
        <path d="M22.189,4.331L6.822,37.945L0.316,53.491L8.978,38.382L26.53,0L22.189,4.331Z" style="fill:rgb(106,203,55);fill-rule:nonzero;"/>
        <path d="M0.316,53.491L11.083,39.058L32.172,5.642L30.622,4.093L8.978,38.382L0.316,53.491Z" style="fill:rgb(91,199,74);fill-rule:nonzero;"/>
        <path d="M0.316,53.491L13.1,39.972L37.317,10.788L35.798,9.268L11.083,39.058L0.316,53.491Z" style="fill:rgb(76,195,92);fill-rule:nonzero;"/>
        <path d="M0.316,53.491L15.027,41.104L42.185,15.655L40.665,14.145L13.1,39.972L0.316,53.491Z" style="fill:rgb(67,193,104);fill-rule:nonzero;"/>
        <path d="M0.316,53.491L16.835,42.435L46.923,20.393L45.393,18.863L15.027,41.104L0.316,53.491Z" style="fill:rgb(57,190,115);fill-rule:nonzero;"/>
        <path d="M0.316,53.491L18.514,43.935L51.671,25.141L50.102,23.572L16.835,42.435L0.316,53.491Z" style="fill:rgb(48,188,127);fill-rule:nonzero;"/>
        <path d="M0.316,53.491L20.083,45.604L52.734,31.648L52.734,29.323L18.514,43.935L0.316,53.491Z" style="fill:rgb(38,185,139);fill-rule:nonzero;"/>
        <path d="M0.316,53.491L21.523,47.402L52.734,37.876L52.734,35.631L20.083,45.604L0.316,53.491Z" style="fill:rgb(28,183,150);fill-rule:nonzero;"/>
        <path d="M0.316,53.491L22.845,49.319L52.734,43.478L52.734,41.293L21.523,47.402L0.316,53.491Z" style="fill:rgb(19,181,162);fill-rule:nonzero;"/>
        <path d="M0.316,53.491L24.056,51.355L52.734,48.644L52.734,46.488L22.845,49.319L0.316,53.491Z" style="fill:rgb(10,178,173);fill-rule:nonzero;"/>
        <path d="M0.316,53.491L52.734,53.491L52.734,51.355L24.056,51.355L0.316,53.491Z" style="fill:rgb(0,176,185);fill-rule:nonzero;"/>
    </g>
</svg>
